<?xml version="1.0" encoding="UTF-8"?>
<svg width="200px" height="3000px" viewBox="0 0 300 3000" version="1.1" xmlns="http://www.w3.org/2000/svg" xmlns:xlink="http://www.w3.org/1999/xlink">
    <!-- Generator: Sketch 53.2 (72643) - https://sketchapp.com -->
    <title>Artboard</title>
    <desc>Created with Sketch.</desc>
    <g id="Artboard" stroke="none" stroke-width="1" fill="none" fill-rule="evenodd">
        <g id="Group-12" transform="translate(-40.000000, -3581.000000)" fill="#FFFFFF">
            <path d="M575.999058,8303.81301 C580.681522,9642.77152 582.254457,10999.7974 583.707993,12357.9524 C585.036941,12338.4736 586.371079,12318.9947 587.700027,12298.9513 C548.293615,9198.71043 532.361817,5444.94038 501.282092,2109.54194 C500.176366,1990.69279 496.703452,2074.25419 497.367926,2199.59629 C515.334675,5578.46924 541.70598,8817.6027 552.768431,12299.7982 C554.076614,12269.8742 555.384796,12239.9502 556.687788,12210.0261 C530.856368,9236.2566 515.557897,6029.87018 488.584413,3084.04854 C487.489069,2964.91708 483.943479,3048.76078 484.659864,3173.82058 C501.868698,6152.38926 521.242263,9104.42155 532.034771,12178.4083 C533.405248,12157.2357 534.791299,12136.9099 536.166968,12116.3019 C507.807433,8389.91513 484.140744,4566.69878 458.833636,777.64098 C457.894028,637.336873 454.088878,691.538862 454.691057,839.182822 C469.750733,4496.68788 496.13242,7989.32855 507.470005,11695.3896 C508.778188,11664.9009 510.091562,11635.2592 511.399744,11605.3352 C483.917523,8438.18877 469.610571,5003.13771 446.125574,1751.58297 C445.123672,1612.97268 441.448301,1663.78704 441.998569,1813.68942 C451.799558,4498.09939 467.840371,7089.91429 481.332304,9722.38069 C482.702781,9701.77264 484.083641,9681.4469 485.464501,9660.83885 C471.868743,7157.38448 455.848695,4697.40462 436.236335,2314.77551 C435.208477,2190.28032 431.756328,2280.61697 432.316978,2404.26526 C441.520978,4429.7823 453.336153,6419.72928 459.394286,8483.9217 C460.70766,8453.71538 462.015843,8424.07367 463.318834,8394.14966 C440.825357,6709.08886 429.191874,4717.16576 416.296929,2779.72695 C415.372895,2639.42285 411.235507,2699.27087 412.169924,2841.26879 C424.774162,4762.89869 433.651116,6743.81201 442.470968,8723.87842 C443.779151,8693.95441 445.087334,8664.03039 446.395517,8634.10638 C430.723279,6949.04558 419.001545,5182.3995 410.046722,3359.57531 C409.314763,3210.23754 405.556333,3277.42543 405.914526,3421.68176 C412.476205,6038.90385 425.012957,8592.60798 434.782798,11176.5184 C435.26558,11304.4012 439.293953,11276.4533 438.992863,11145.7475 C431.610974,7952.62929 412.092056,4921.55243 391.348014,1923.78721 C390.38245,1785.45922 386.530579,1837.96739 387.215817,1985.89365 C400.640265,4898.40366 416.935447,7766.87455 434.191001,10618.125 C435.057932,10761.8168 438.863083,10703.3802 438.328389,10556.0186 C427.883691,7729.32838 408.30767,5053.38747 384.879776,2476.25227 C383.898639,2368.6952 380.898125,2424.591 380.87736,2535.2534 C380.529549,5065.80876 396.155067,7512.23813 406.007967,9959.51439 C407.383636,9938.62404 408.754113,9918.2983 410.140164,9897.40795 C394.395249,7705.89732 383.690991,5417.55709 365.132445,3285.89449 C364.083822,3165.63382 360.455172,3250.60673 361.202705,3375.38423 C377.721109,6099.31648 394.088968,8828.33017 404.367548,11646.269 C405.743216,11625.3787 407.124076,11604.7706 408.494553,11583.8803 C389.956772,7737.51514 368.13296,3938.57677 334.566649,392.863318 C333.44535,274.578769 329.94648,357.010961 330.647292,482.635363 C352.528207,4395.62375 382.943458,8174.23638 394.685956,12237.1271 C395.994139,12206.9208 397.302322,12177.2791 398.605314,12147.0728 C368.018753,8730.93597 343.77065,5156.71002 311.984922,1771.62642 C310.889578,1654.75338 307.240164,1736.90327 308.070756,1861.39846 C329.484463,5083.31149 355.507957,8221.09851 369.934307,11567.5067 C371.24249,11537.5827 372.545481,11507.941 373.853664,11478.017 C346.039205,7958.55763 329.370257,4141.26963 290.457009,905.523798 C289.128061,794.861404 285.951045,864.307702 286.537651,995.013541 C301.062634,4223.70182 327.091319,7265.22385 337.925357,10547.2672 C339.238731,10517.6255 340.541723,10487.7015 341.849905,10457.7775 C317.814642,7499.25223 294.615161,4511.93219 263.857291,1736.33866 C262.621785,1625.11166 259.190401,1697.66328 259.937934,1826.39301 C281.060933,5450.30412 311.330831,8986.98391 316.262472,12826.0092 C317.596611,12806.8126 318.920368,12787.0515 320.254506,12767.2903 C277.826815,9198.42813 257.524025,5045.20072 229.045092,1127.13089 C227.73691,1156.7726 226.428727,1186.97892 225.120544,1216.90293 C252.727355,4360.336 275.765908,7640.96785 286.968521,11081.6649 C288.276704,11051.4586 289.574504,11021.5346 290.882687,10991.6106 C256.94261,7910.56628 232.471286,4585.89532 211.919318,1181.05058 C210.616326,1210.97459 209.308143,1240.6163 208.005152,1270.82262 C231.967739,4221.4434 254.78307,7214.97409 265.632682,10401.3171 C266.940865,10371.393 268.243856,10341.7513 269.552039,10311.545 C244.000944,7853.54128 225.930371,5203.28985 203.026789,2674.9929 C201.952211,2556.70835 198.292413,2640.26975 199.102241,2764.76495 C216.139765,5379.72862 238.02068,7916.77693 248.709364,10641.2738 C250.017547,10611.6321 251.320539,10581.4258 252.628722,10551.784 C220.702831,7490.21857 197.762911,4188.97867 173.867809,926.978752 C172.559627,956.902767 171.251444,987.109084 169.943261,1016.7508 C199.694038,3871.38889 220.313491,6941.98803 234.417986,10126.0726 C235.726169,10096.4309 237.034352,10066.2246 238.342535,10036.3005 C210.154309,7502.07525 190.900142,4716.03655 167.991369,2038.11953 C166.942746,1915.60045 163.464641,2003.67868 164.072012,2127.89157 C177.781976,4930.02149 196.761009,7658.75288 200.503865,10574.9328 C201.832813,10555.454 203.172143,10535.6928 204.501091,10516.4963 C174.148134,7926.0929 156.093135,4986.19959 127.105464,2353.45089 C125.688266,2224.72117 122.044043,2340.1827 123.404138,2471.17084 C150.169974,5041.81309 169.543538,7808.37295 183.46115,10659.9057 C184.769333,10629.9817 186.077516,10600.34 187.385699,10570.1337 C163.142787,7587.04816 139.52801,4577.70856 105.972082,1859.70465 C104.393957,1732.10413 101.201368,1841.63732 102.265564,1977.42459 C122.069999,4500.3578 144.459652,6972.19435 158.304587,9618.49355 C159.503754,9580.66507 160.697731,9542.8366 161.896898,9505.29043 C135.328328,7807.52604 117.185078,5793.30109 94.4528057,3950.71576 C93.1550053,3845.98171 89.7132386,3909.21736 90.5334484,4040.4878 C107.082999,6702.03131 132.888463,9237.38581 136.838968,12083.2725 C138.178298,12063.5114 139.507245,12044.3149 140.836193,12024.5537 C102.987141,9232.86898 82.6168658,5896.62363 48.7546571,2973.66844 C47.2440174,2842.96261 44.0098987,2956.44802 45.0533303,3091.38839 C68.7875045,6149.00164 95.7038853,9139.1447 109.730512,12386.7472 C111.033504,12356.8232 112.341687,12326.8992 113.644678,12296.6929 C81.9991128,8261.75001 59.5731215,4030.04263 25.0464389,59.7469268 C23.8109329,98.7046065 22.5806181,137.944588 21.3399209,177.18457 C55.3682481,3771.45397 77.1609128,7629.11116 98.4656047,11487.8976 C99.8360819,11467.2895 101.216942,11446.6815 102.602992,11426.0734 C81.7499352,8621.40279 55.3630569,5960.98849 25.1917926,3421.68176 C23.6863441,3295.21045 20.2134301,3405.30824 21.4904657,3539.40171 C37.7700743,5246.48206 55.1294528,6928.43753 64.6760727,8792.19551 C65.9842556,8762.2715 67.2872472,8732.06518 68.59543,8702.42347 C45.7229953,6853.6275 26.5363138,4886.54698 7.47422114,2916.92574 C6.23871513,2956.16572 5.00840033,2995.1234 3.76770312,3034.64568 C27.003522,5085.0053 45.8631578,7249.13264 58.6231316,9558.64552 C60.0039912,9537.75517 61.3796597,9517.42942 62.7553281,9496.53907 C46.9013981,7209.89265 27.6368486,5009.34836 4.04802801,2927.65321 C2.82290441,2967.1755 1.5873984,3006.13318 0.346701193,3045.37316 C33.5444361,5568.02407 56.1157811,8498.60141 94.8006162,10805.2913 C96.0101662,10877.8429 98.5953847,10824.2055 98.4552222,10723.1414 C93.3626534,7063.94251 51.1322275,3989.39114 39.3533908,416.294386 C38.1594144,454.40516 36.9602468,492.233631 35.7662704,530.062103 C73.0131427,2765.32955 89.0072351,5716.79724 108.988171,8465.85437 C109.984881,8603.05316 113.764076,8553.368 113.120367,8404.03023 C103.693145,6228.32851 88.2233637,4149.17408 78.7961414,1973.75467 C77.4879586,2003.67868 76.1797757,2033.6027 74.8767841,2063.24441 C98.2371918,4610.7379 121.270554,7165.85354 137.965458,9869.17774 C138.858345,10013.9987 142.538907,9954.15065 142.092464,9807.3536 C136.423672,7938.79649 127.816659,6106.65634 119.038337,4275.36309 C117.730154,4305.85171 116.421971,4335.49342 115.113789,4365.41744 C130.858703,5527.09027 144.132606,6782.48739 153.295077,8139.79553 C154.234685,8278.97043 158.122895,8225.61535 157.432465,8077.68908 C148.072728,6068.26326 132.592565,4173.45206 120.273843,2216.53441 C118.970851,2246.74073 117.662669,2276.66474 116.354486,2306.58876 C142.435083,4153.69092 158.475896,6300.59783 174.231194,8447.78704 C175.269434,8587.24424 178.804642,8534.45376 178.368581,8385.39829 C172.580391,6419.44698 160.744452,4554.27749 148.264803,2689.108 C146.889134,2709.43375 145.503083,2730.6064 144.132606,2750.93215 C159.316871,4716.60116 169.185346,6777.68825 181.483302,8798.40616 C182.858971,8777.51581 184.23983,8756.90776 185.610308,8736.29971 C170.431234,6504.70219 156.248871,4216.36197 153.74152,1823.00538 C153.019943,1129.67161 164.855883,1960.76877 168.868682,2183.22277 C177.460121,2658.90169 184.431905,3214.18977 190.920907,3776.53541 C202.460948,4776.16688 210.725342,5884.48464 217.359697,7004.09448 C218.740557,6983.20413 220.111034,6962.87838 221.491894,6941.98803 C213.923122,5865.0058 208.918803,4756.12344 204.236339,3633.69058 C202.85548,3654.58093 201.479811,3674.90668 200.098952,3696.07933 C211.88298,5595.40737 224.445688,7477.79728 243.917885,9190.52367 C245.044376,9289.61168 247.873581,9248.96019 247.915111,9131.80485 C248.652261,7107.98162 237.029161,5157.55692 231.225397,3175.23209 C229.917214,3205.15611 228.614223,3235.08012 227.30604,3264.72183 C246.778237,5304.35398 262.357034,7434.88737 275.106625,9624.42189 C275.942409,9767.54902 279.872148,9708.83019 279.244013,9562.59774 C269.437833,7282.16197 254.481981,5070.04329 247.946258,2748.95603 C246.752281,2786.7845 245.558305,2824.61297 244.364329,2862.44145 C270.24766,4530.28182 284.040683,6598.42647 304.950844,8437.90647 C306.009849,8531.63074 309.093423,8500.01292 308.942878,8379.18765 C306.549734,6511.47744 298.560474,4683.00722 296.151757,2815.29701 C294.822809,2834.77585 293.48867,2854.53699 292.159723,2874.01583 C318.24032,4720.83569 334.286325,6868.0249 350.041622,9014.64951 C351.043524,9152.4129 354.775998,9102.72774 354.173818,8953.10767 C344.954244,6691.86844 329.863421,4535.64556 316.220943,2347.24025 C315.032157,2384.78642 313.83299,2422.89719 312.639013,2460.72566 C345.665439,3951.28036 361.015822,6184.28939 380.275181,8201.33737 C381.380906,8317.0812 385.051086,8235.49592 384.194538,8111.28303 C371.403417,6270.95611 352.678752,4584.76611 337.146677,2813.32089 C335.947509,2675.83981 332.36558,2795.81817 333.440159,2931.04084 C348.956661,4881.18324 365.355667,6809.58838 380.861786,8759.44848 C381.770247,8873.2162 384.781144,8806.02831 384.864203,8700.72966 C386.120474,6954.69162 381.380906,5226.15631 379.309617,3487.45813 C377.980669,3507.21927 376.651722,3526.69811 375.322774,3546.45926 C392.157841,4845.04858 408.250566,6170.45659 424.187556,7502.63986 C425.449018,7607.93851 429.015373,7541.59754 428.106913,7412.58551 C420.465464,6327.13422 415.056232,5200.74913 407.419974,4115.01554 C406.44922,3977.25215 402.602539,4028.34882 403.287778,4177.12198 C413.415812,6386.13534 428.241884,8522.03247 444.672038,10613.8905 C445.694704,10744.0317 448.965161,10643.8145 448.586204,10524.1184 C443.571503,8919.79603 438.556802,7315.75591 433.163143,5715.66803 C431.860152,5745.30974 430.55716,5775.23376 429.248977,5805.15777 C433.069702,6166.78667 436.890426,6528.41556 440.711151,6890.04446 C442.086819,7020.18569 445.793337,6902.74805 444.412478,6772.32451 C440.591753,6410.97792 436.771029,6049.34902 432.950304,5687.43783 C431.673269,5567.17716 428.61046,5652.15007 429.030947,5777.49217 C434.424606,7377.86236 439.439306,8981.90248 444.454007,10585.9426 C445.76219,10555.7363 447.065182,10525.8123 448.373364,10496.1705 C432.088565,8423.50907 417.459758,6304.55006 407.419974,4115.01554 C406.044306,4135.90589 404.663446,4156.23163 403.287778,4177.12198 C410.924035,5262.85558 416.328076,6388.95836 423.974716,7474.40965 C425.282899,7444.76794 426.585891,7414.56162 427.894074,7384.63761 C411.941511,6053.01895 395.864359,4727.61094 379.024101,3428.45701 C377.89761,3342.07259 374.876331,3361.83373 375.026876,3487.45813 C377.098165,5226.15631 381.832541,6954.69162 380.571079,8700.72966 C381.905218,8680.96852 383.228974,8661.48968 384.568304,8642.01084 C369.062185,6691.86844 352.657987,4763.46329 337.146677,2813.32089 C335.911171,2852.56088 334.680856,2891.51855 333.440159,2931.04084 C348.816498,4684.13642 367.395809,6351.69449 380.062341,8173.10717 C381.365333,8143.46546 382.673516,8113.54144 383.981699,8083.33512 C364.545839,6048.21982 348.987808,3799.68417 315.670675,2296.14358 C314.160036,2227.54419 311.341213,2288.80373 312.083555,2409.06439 C325.731224,4597.4697 340.822048,6753.97488 350.041622,9014.64951 C351.412099,8994.04146 352.792959,8973.71572 354.173818,8953.10767 C338.28355,6789.26264 322.154486,4618.92466 295.86105,2756.57819 C294.708603,2674.7106 291.697706,2686.00268 291.869015,2815.29701 C294.267351,4683.00722 302.25661,6511.75974 304.654945,8379.18765 C305.989084,8359.70881 307.318032,8340.22997 308.646979,8320.18653 C287.539553,6462.63919 273.5285,4381.50865 247.39599,2697.57706 C245.849012,2598.20675 243.523354,2709.15145 243.814061,2811.06248 C250.360167,5131.86744 265.300445,7343.98612 275.106625,9624.42189 C276.487485,9603.53154 277.863153,9583.20579 279.244013,9562.59774 C266.375024,7353.58439 250.656065,5204.41906 231.012558,3147.28419 C229.808199,3021.09519 226.735008,3115.38406 227.093201,3237.33854 C232.839861,5198.49072 244.359137,7129.71888 243.627178,9131.80485 C244.956126,9112.04371 246.285073,9092.56487 247.619212,9073.08603 C228.349471,7378.14466 215.895778,5513.82208 204.236339,3633.69058 C203.353835,3491.69266 199.481199,3548.43537 200.098952,3696.07933 C204.786607,4817.94758 209.790925,5927.39455 217.359697,7004.09448 C218.330452,7141.85787 222.353633,7087.09127 221.491894,6941.98803 C208.378918,4728.74014 187.930775,2502.78866 152.537162,1108.49896 C151.177067,1054.86157 149.318617,1127.13089 149.313425,1208.99848 C149.173263,3834.68963 164.912986,6362.98658 181.483302,8798.40616 C182.428101,8936.73415 186.492812,8880.55605 185.610308,8736.29971 C173.317542,6715.86411 163.454259,4654.21241 148.264803,2689.108 C147.221371,2554.73224 143.161851,2606.95811 144.132606,2750.93215 C156.612255,4615.81933 168.443004,6481.27112 174.231194,8447.78704 C175.612053,8426.61439 176.992913,8406.00634 178.368581,8385.39829 C162.483504,6221.55326 146.349249,4051.21528 120.061004,2188.86881 C118.700909,2092.60382 115.285098,2142.85358 116.146838,2278.35855 C128.455177,4235.2762 143.940532,6130.36971 153.295077,8139.79553 C154.675937,8119.18748 156.056796,8098.29713 157.432465,8077.68908 C148.145405,6701.46671 134.783252,5426.59075 118.820307,4247.97979 C117.434256,4145.22185 114.252049,4202.24686 114.900949,4337.46953 C123.67408,6168.48048 132.296666,8000.90293 137.965458,9869.17774 C139.341127,9848.852 140.711604,9827.67935 142.092464,9807.3536 C125.283353,7084.83286 102.104637,4511.08528 78.5833021,1945.80677 C77.4568113,1823.56999 74.1188686,1911.08362 74.6639448,2035.57881 C84.0911671,4210.99823 99.5609482,6290.43495 108.988171,8465.85437 C110.363839,8445.24632 111.739507,8424.63827 113.120367,8404.03023 C92.864298,5616.86232 76.5639247,2631.23609 38.8083146,365.19772 C37.2405717,271.191145 34.8733837,372.819874 35.2160031,478.400832 C46.9221629,4029.19572 89.105868,7088.50278 94.1724808,10723.1414 C95.3924132,10695.7581 96.6071544,10668.0925 97.8270868,10640.4269 C59.3966206,8349.26363 37.0277325,5433.93061 4.04802801,2927.65321 C2.48028509,2807.67485 -1.12760009,2915.23193 0.346701193,3045.37316 C23.7486385,5110.13018 42.8937904,7289.78413 58.6231316,9558.64552 C59.5835039,9696.4089 63.5651556,9643.05382 62.7553281,9496.53907 C49.8811479,7167.82965 30.8969232,4985.07038 7.47422114,2916.92574 C6.02068466,2788.76062 2.4854763,2901.39913 3.76770312,3034.64568 C22.834987,5004.26692 42.0216685,6971.06514 64.8941032,8819.86111 C66.2178596,8927.41818 69.4883167,8862.20642 68.8134605,8730.37137 C59.1630165,6847.41685 41.6427108,5146.54714 25.1917926,3421.68176 C23.9510954,3460.92174 22.7155893,3499.87942 21.4904657,3539.40171 C51.4488908,6061.48801 77.757901,8702.14117 98.4656047,11487.8976 C99.4675066,11623.6848 103.41282,11573.4351 102.602992,11426.0734 C81.1892854,7547.80818 59.2356934,3671.51905 25.0464389,59.7469268 C23.7694033,-75.4757439 20.1719005,42.8088052 21.3399209,177.18457 C55.8614122,4147.48027 78.297786,8379.18765 109.943352,12414.1305 C110.92968,12540.6018 114.392211,12448.0068 113.857518,12324.6408 C99.7530227,9057.27712 72.6289938,6049.91363 48.7546571,2973.66844 C47.5191511,3013.19073 46.2888363,3051.86611 45.0533303,3091.38839 C78.915539,6014.34357 99.2806233,9350.30662 137.134866,12141.9914 C138.266548,12225.5528 141.308592,12210.8731 141.132091,12083.2725 C137.134866,9213.10784 111.350167,6662.79133 94.6708362,3978.66366 C93.3626534,4008.58767 92.0544705,4038.51169 90.7462877,4068.1534 C113.691399,5927.95915 132.05268,7956.86382 158.854854,9669.87251 C160.292817,9761.05607 163.002624,9663.94417 162.441974,9556.3871 C148.488024,6890.89136 125.911488,4400.98749 105.972082,1859.70465 C104.736576,1898.94463 103.50107,1937.90231 102.265564,1977.42459 C135.826683,4695.4285 159.44146,7704.48581 183.679181,10687.8536 C184.686274,10811.7842 188.205909,10722.0122 187.598538,10598.0816 C173.577102,7727.35227 154.047801,4941.59587 127.105464,2353.45089 C125.87515,2392.69087 124.644835,2432.21316 123.404138,2471.17084 C152.391808,5103.63723 170.441616,8043.53054 200.794573,10633.9339 C201.869151,10725.6821 204.942343,10697.1696 204.791798,10574.9328 C201.022986,7637.86253 182.012805,4888.52309 168.2094,2066.06743 C166.901217,2095.99144 165.593034,2125.63316 164.284851,2155.83947 C187.204007,4833.4742 206.458174,7620.0775 234.641208,10154.0205 C235.913052,10268.3528 239.121215,10192.4136 238.555374,10064.2484 C224.362628,6860.12044 203.566674,3770.88937 173.65497,899.313154 C172.481759,786.956947 168.821961,864.0254 169.735613,989.085198 C193.755303,4269.15244 216.819812,7591.00039 248.927395,10669.2217 C250.162901,10788.6354 253.339916,10705.6386 252.841561,10579.4496 C242.152877,7854.38818 220.277153,5318.18678 203.239629,2702.9408 C201.931446,2732.86482 200.623263,2763.07113 199.320271,2792.71285 C222.239427,5321.2921 240.294426,7971.26122 265.850712,10429.265 C267.106983,10550.3725 270.190557,10464.5527 269.764879,10339.4929 C258.84259,7133.67111 235.819611,4121.50848 211.706479,1153.38498 C210.725342,1031.7128 207.039588,1118.94413 207.792313,1242.87472 C228.458487,4666.916 253.049209,8010.5012 287.18136,11109.3305 C288.489543,11228.1797 291.510823,11145.4652 291.095526,11019.5585 C279.830619,7559.38256 256.584417,4260.68338 228.832253,1098.90069 C227.788822,980.616137 224.014818,1066.15365 224.912896,1189.23733 C253.521608,5125.09219 273.923031,9298.92765 316.55318,12885.0103 C317.63295,12976.1938 320.70095,12948.8106 320.550405,12826.0092 C315.582425,8963.83515 285.328101,5410.78184 264.07013,1764.00426 C262.767139,1794.21058 261.458956,1824.13459 260.150773,1853.77631 C290.913834,4629.36983 314.113315,7617.25448 338.148579,10575.4974 C339.19201,10704.5094 342.457276,10605.986 342.062745,10485.4431 C331.223516,7203.11741 305.189639,4161.87767 290.669848,933.189397 C289.366856,962.83111 288.053482,993.037427 286.750491,1022.96144 C325.648165,4257.29576 342.34307,8076.55988 370.147146,11595.4546 C371.143857,11721.079 374.590815,11628.484 374.066503,11505.6826 C359.650536,8158.70977 333.61666,5021.20504 312.208144,1799.57432 C310.899961,1829.49833 309.596969,1859.42235 308.283595,1889.06406 C340.074514,5274.42996 364.317426,8848.65592 394.898796,12264.7927 C396.056434,12393.2402 399.171155,12295.2814 398.818153,12175.0207 C387.070464,8112.12993 356.660404,4333.235 334.779489,420.811219 C333.471306,450.735234 332.168314,480.659248 330.860131,510.583263 C364.270706,4039.35859 385.918017,7819.10043 404.367548,11646.269 C405.073551,11792.7838 409.029247,11730.1127 408.494553,11583.8803 C398.231547,8766.50603 381.853306,6037.77464 365.340093,3313.27778 C364.037102,3343.7664 362.73411,3373.40811 361.425927,3403.33213 C379.828737,5517.2097 390.398024,7786.6357 406.007967,9959.51439 C406.994296,10097.2778 410.737152,10047.3103 410.140164,9897.40795 C400.375514,7471.30433 384.817482,5043.5069 385.170484,2535.2534 C383.836345,2554.73224 382.512588,2574.49338 381.173258,2593.68992 C404.455798,5154.4516 423.824172,7810.91367 434.191001,10618.125 C435.56667,10597.517 436.942338,10577.1912 438.328389,10556.0186 C421.067644,7704.48581 404.772461,4836.86182 391.348014,1923.78721 C389.961963,1944.67756 388.586294,1965.28561 387.215817,1985.89365 C407.809314,4961.92162 427.369762,7975.49575 434.710122,11145.7475 C436.111746,11135.3023 437.508179,11125.1395 438.914995,11114.6943 C429.145153,8530.50153 416.613592,5977.0797 410.046722,3359.57531 C408.676245,3380.46566 407.290194,3401.07371 405.914526,3421.68176 C414.96279,5263.42018 426.861025,7049.5451 442.688999,8752.10863 C443.825872,8873.2162 447.169006,8786.83178 446.613547,8662.05428 C437.783313,6681.70556 428.91674,4700.50994 416.296929,2779.72695 C414.931643,2800.335 413.545592,2820.66075 412.169924,2841.26879 C425.173884,4797.05723 436.906,6810.71759 459.612316,8511.5873 C461.076235,8621.40279 463.915822,8554.21491 463.531673,8422.09756 C457.478732,6357.34053 445.653175,4367.95815 436.449174,2342.44111 C435.140991,2372.08283 433.838,2402.57145 432.529817,2432.21316 C451.996823,4797.05723 467.840371,7238.96976 481.332304,9722.38069 C482.110984,9866.35472 486.201651,9805.65979 485.464501,9660.83885 C471.98295,7027.80785 455.931754,4435.99294 446.125574,1751.58297 C444.749906,1772.19102 443.363855,1792.51677 441.998569,1813.68942 C465.618537,5083.87609 480.055269,8537.27678 507.693226,11722.7729 C508.804144,11851.5026 511.975968,11753.8261 511.607392,11633.2831 C500.264617,7927.2221 473.88293,4434.29913 458.833636,777.64098 C457.452776,797.966726 456.071917,818.857076 454.691057,839.182822 C480.008548,4628.24062 503.675236,8451.73927 532.034771,12178.4083 C533.073012,12315.0425 536.69647,12266.7689 536.166968,12116.3019 C525.374459,9042.59741 506.000895,6090.28282 488.797252,3111.99644 C487.489069,3141.63815 486.180887,3171.56217 484.877895,3201.76848 C511.861761,6147.30783 527.14985,9353.97655 552.98127,12327.7461 C554.10257,12455.6289 557.295159,12358.7993 556.900627,12237.6917 C545.838177,8755.77855 519.461681,5516.6451 501.494932,2137.77214 C500.19194,2167.69616 498.888948,2197.62017 497.585957,2227.54419 C528.644916,5561.24882 544.597479,9316.71268 583.9987,12416.6712 C585.12,12505.3141 588.125706,12482.7299 587.995926,12357.9524 C586.521624,10978.907 584.881205,9601.27312 580.136446,8241.70656 C579.612135,8094.3449 575.485129,8156.73365 575.999058,8303.81301" id="Fill-26"></path>
        </g>
    </g>
</svg>