<?xml version="1.0" encoding="UTF-8" standalone="no"?>
<!-- Generator: Adobe Illustrator 16.2.1, SVG Export Plug-In . SVG Version: 6.00 Build 0)  -->

<svg
   xmlns:dc="http://purl.org/dc/elements/1.1/"
   xmlns:cc="http://creativecommons.org/ns#"
   xmlns:rdf="http://www.w3.org/1999/02/22-rdf-syntax-ns#"
   xmlns:svg="http://www.w3.org/2000/svg"
   xmlns="http://www.w3.org/2000/svg"
   xmlns:sodipodi="http://sodipodi.sourceforge.net/DTD/sodipodi-0.dtd"
   xmlns:inkscape="http://www.inkscape.org/namespaces/inkscape"
   version="1.1"
   id="Livetype"
   x="0px"
   y="0px"
   width="110px"
   height="40px"
   viewBox="0 0 110 40"
   enable-background="new 0 0 110 40"
   xml:space="preserve"
   inkscape:version="0.91 r13725"
   sodipodi:docname="Get_it_on_iTunes_Badge_US_1114.svg"><metadata
     id="metadata3385"><rdf:RDF><cc:Work
         rdf:about=""><dc:format>image/svg+xml</dc:format><dc:type
           rdf:resource="http://purl.org/dc/dcmitype/StillImage" /><dc:title></dc:title></cc:Work></rdf:RDF></metadata><defs
     id="defs3383" /><sodipodi:namedview
     pagecolor="#ffffff"
     bordercolor="#666666"
     borderopacity="1"
     objecttolerance="10"
     gridtolerance="10"
     guidetolerance="10"
     inkscape:pageopacity="0"
     inkscape:pageshadow="2"
     inkscape:window-width="1283"
     inkscape:window-height="649"
     id="namedview3381"
     showgrid="false"
     inkscape:zoom="3.670527"
     inkscape:cx="120.23908"
     inkscape:cy="-2.3934564"
     inkscape:window-x="0"
     inkscape:window-y="0"
     inkscape:window-maximized="0"
     inkscape:current-layer="g3698" /><g
     id="g3337"><path
       fill="#A6A6A6"
       d="M103.371,0H6.625C6.372,0,6.119,0,5.866,0.001C5.652,0.002,5.443,0.005,5.23,0.01   c-0.465,0.016-0.934,0.04-1.394,0.125c-0.467,0.082-0.9,0.22-1.32,0.436C2.098,0.783,1.72,1.057,1.385,1.386   C1.056,1.721,0.783,2.098,0.57,2.517C0.355,2.936,0.217,3.37,0.135,3.837c-0.087,0.46-0.11,0.929-0.126,1.394   C0.004,5.444,0.002,5.652,0.001,5.866C0,6.119,0,6.372,0,6.625v26.753c0,0.248,0,0.506,0.001,0.756   c0.001,0.211,0.003,0.426,0.008,0.639c0.016,0.471,0.04,0.934,0.126,1.389c0.082,0.473,0.22,0.906,0.435,1.33   c0.212,0.408,0.485,0.799,0.815,1.121c0.335,0.334,0.712,0.613,1.131,0.824c0.419,0.217,0.853,0.344,1.32,0.438   c0.46,0.08,0.929,0.105,1.394,0.115c0.213,0.004,0.422,0.006,0.636,0.008C6.119,40,6.372,40,6.625,40h96.747   c0.252,0,0.506,0,0.76-0.002c0.211-0.002,0.426-0.004,0.641-0.008c0.463-0.01,0.932-0.035,1.393-0.115   c0.461-0.094,0.895-0.221,1.32-0.438c0.42-0.211,0.797-0.49,1.127-0.824c0.328-0.322,0.607-0.713,0.818-1.121   c0.217-0.424,0.354-0.857,0.436-1.33c0.082-0.455,0.111-0.918,0.123-1.389c0.008-0.213,0.01-0.428,0.01-0.639   C110,33.885,110,33.627,110,33.379V6.625c0-0.254,0-0.506-0.002-0.76c0-0.213-0.002-0.421-0.01-0.635   c-0.012-0.465-0.041-0.934-0.123-1.394c-0.082-0.467-0.219-0.901-0.436-1.32c-0.211-0.419-0.49-0.796-0.818-1.131   c-0.33-0.329-0.707-0.603-1.127-0.815c-0.426-0.215-0.859-0.354-1.32-0.436c-0.461-0.086-0.93-0.11-1.393-0.125   c-0.215-0.005-0.43-0.007-0.641-0.008C103.877,0,103.623,0,103.371,0L103.371,0z"
       id="path3339" /><path
       d="M103.371,0.985l0.752,0.001c0.207,0.001,0.416,0.003,0.619,0.013c0.379,0.009,0.818,0.027,1.246,0.108   c0.395,0.071,0.727,0.18,1.051,0.342c0.32,0.166,0.615,0.38,0.875,0.638c0.258,0.258,0.473,0.552,0.639,0.876   c0.162,0.322,0.271,0.654,0.342,1.05c0.076,0.423,0.096,0.865,0.105,1.24c0.006,0.207,0.008,0.415,0.008,0.625   c0.002,0.25,0.002,0.496,0.002,0.748v26.753c0,0.246,0,0.502-0.002,0.75c0,0.207-0.002,0.416-0.008,0.621   c-0.01,0.377-0.029,0.818-0.105,1.244c-0.07,0.387-0.18,0.725-0.342,1.053c-0.166,0.318-0.381,0.613-0.639,0.875   c-0.26,0.254-0.555,0.467-0.877,0.627c-0.322,0.174-0.654,0.277-1.047,0.35c-0.434,0.074-0.893,0.104-1.244,0.111   c-0.205,0.004-0.412,0.006-0.623,0.008c-0.25,0.002-0.502,0.002-0.752,0.002H6.625c-0.002,0-0.005,0-0.007,0   c-0.249,0-0.497,0-0.748-0.002c-0.203-0.002-0.412-0.004-0.617-0.008c-0.349-0.008-0.81-0.037-1.241-0.111   c-0.395-0.072-0.727-0.176-1.051-0.35c-0.323-0.16-0.617-0.373-0.875-0.627c-0.257-0.262-0.471-0.557-0.638-0.875   c-0.161-0.328-0.271-0.666-0.341-1.055c-0.082-0.426-0.099-0.865-0.108-1.242c-0.01-0.207-0.012-0.416-0.013-0.621l0-0.6v-0.15   V6.625v-0.15l0-0.598c0.001-0.208,0.003-0.416,0.013-0.624c0.009-0.374,0.026-0.814,0.108-1.241c0.07-0.394,0.18-0.727,0.341-1.05   C1.615,2.639,1.83,2.345,2.087,2.087c0.257-0.257,0.551-0.472,0.875-0.639c0.323-0.161,0.655-0.27,1.05-0.341   C4.438,1.026,4.878,1.008,5.253,1C5.46,0.99,5.668,0.988,5.876,0.987l0.749-0.001H103.371"
       id="path3341" /><g
       id="g3698"
       transform="translate(111.75564,7.51048)"><g
         id="g3702"
         transform="matrix(0.63120629,0,0,0.63120629,-110.90482,-8.7539458)"><path
           id="path3704"
           d="m 66.4,23.4 0,-9.3 1.2,0 0,8.3 4.4,0 0,1 -5.6,0 z"
           inkscape:connector-curvature="0"
           style="fill:#ffffff" /><path
           id="path3706"
           d="m 73.3,15 c 0,-0.4 0.3,-0.7 0.7,-0.7 0.4,0 0.7,0.3 0.7,0.7 0,0.4 -0.3,0.7 -0.7,0.7 -0.4,0 -0.7,-0.3 -0.7,-0.7 z m 0.2,8.4 0,-6.8 1.1,0 0,6.8 -1.1,0 z"
           inkscape:connector-curvature="0"
           style="fill:#ffffff" /><path
           id="path3708"
           d="m 76,22.5 0.5,-0.8 c 0.4,0.5 1.3,1 2.2,1 1,0 1.6,-0.5 1.6,-1.2 0,-1.6 -4.2,-0.6 -4.2,-3.1 0,-1.1 0.9,-1.9 2.5,-1.9 1.2,0 2,0.4 2.5,1 l -0.5,0.7 c -0.4,-0.5 -1.1,-0.9 -2,-0.9 -0.9,0 -1.5,0.5 -1.5,1.1 0,1.5 4.2,0.5 4.2,3.1 0,1.1 -0.9,2 -2.6,2 -1.1,0.1 -2,-0.3 -2.7,-1 z"
           inkscape:connector-curvature="0"
           style="fill:#ffffff" /><path
           id="path3710"
           d="m 83.3,22 0,-4.4 -1.1,0 0,-0.9 1.1,0 0,-1.8 1.1,0 0,1.8 1.4,0 0,0.9 -1.4,0 0,4.2 c 0,0.5 0.2,0.9 0.7,0.9 0.3,0 0.6,-0.1 0.7,-0.3 l 0.3,0.8 c -0.3,0.3 -0.6,0.4 -1.2,0.4 -1.1,0 -1.6,-0.6 -1.6,-1.6 z"
           inkscape:connector-curvature="0"
           style="fill:#ffffff" /><path
           id="path3712"
           d="m 86.8,20 c 0,-2 1.4,-3.5 3.3,-3.5 2,0 3.2,1.6 3.2,3.6 l 0,0.3 -5.3,0 c 0.1,1.3 1,2.3 2.4,2.3 0.8,0 1.6,-0.3 2.1,-0.9 l 0.5,0.7 c -0.7,0.7 -1.6,1.1 -2.7,1.1 -2,0 -3.5,-1.5 -3.5,-3.6 z m 3.4,-2.7 c -1.4,0 -2.2,1.2 -2.2,2.2 l 4.4,0 c 0,-0.9 -0.7,-2.2 -2.2,-2.2 z"
           inkscape:connector-curvature="0"
           style="fill:#ffffff" /><path
           id="path3714"
           d="m 99.7,23.4 0,-4.4 c 0,-1.2 -0.6,-1.6 -1.5,-1.6 -0.8,0 -1.6,0.5 -2,1.1 l 0,4.9 -1,0 0,-6.8 1,0 0,1 c 0.5,-0.6 1.4,-1.1 2.4,-1.1 1.4,0 2.1,0.7 2.1,2.2 l 0,4.8 -1,0 z"
           inkscape:connector-curvature="0"
           style="fill:#ffffff" /><path
           id="path3716"
           d="m 106.1,20 c 0,-2 1.3,-3.5 3.3,-3.5 2.1,0 3.3,1.6 3.3,3.5 0,1.9 -1.3,3.6 -3.3,3.6 -2,0 -3.3,-1.6 -3.3,-3.6 z m 5.6,0 c 0,-1.4 -0.8,-2.6 -2.2,-2.6 -1.4,0 -2.2,1.2 -2.2,2.6 0,1.4 0.8,2.6 2.2,2.6 1.4,0 2.2,-1.2 2.2,-2.6 z"
           inkscape:connector-curvature="0"
           style="fill:#ffffff" /><path
           id="path3718"
           d="m 119.1,23.4 0,-4.4 c 0,-1.2 -0.6,-1.6 -1.5,-1.6 -0.8,0 -1.6,0.5 -2,1.1 l 0,4.9 -1,0 0,-6.8 1,0 0,1 c 0.5,-0.6 1.4,-1.1 2.4,-1.1 1.4,0 2.1,0.7 2.1,2.2 l 0,4.8 -1,0 z"
           inkscape:connector-curvature="0"
           style="fill:#ffffff" /><path
           id="path3720"
           d="m 66.3,46.6 2,-2.7 c 1.4,1.5 3.5,2.8 6.3,2.8 2.9,0 4,-1.4 4,-2.8 C 78.6,39.7 67,42.3 67,35 c 0,-3.3 2.9,-5.9 7.3,-5.9 3.1,0 5.6,1 7.5,2.8 l -2,2.6 c -1.6,-1.6 -3.7,-2.3 -5.8,-2.3 -2,0 -3.4,1 -3.4,2.5 0,3.8 11.6,1.4 11.6,8.9 0,3.3 -2.4,6.2 -7.7,6.2 -3.7,0 -6.4,-1.4 -8.2,-3.2 z"
           inkscape:connector-curvature="0"
           style="fill:#ffffff" /><path
           id="path3722"
           d="m 88.5,47.4 0,7.5 -3.2,0 0,-20 3.2,0 0,2 c 1.1,-1.4 2.8,-2.3 4.6,-2.3 3.8,0 6.4,2.8 6.4,7.6 0,4.8 -2.7,7.6 -6.4,7.6 -1.8,0 -3.4,-0.9 -4.6,-2.4 z m 7.8,-5.3 c 0,-2.8 -1.6,-4.8 -4.1,-4.8 -1.5,0 -3,0.8 -3.7,1.9 l 0,5.8 c 0.7,1.1 2.2,2 3.7,2 2.5,0 4.1,-2 4.1,-4.9 z"
           inkscape:connector-curvature="0"
           style="fill:#ffffff" /><path
           id="path3724"
           d="m 101.9,42.1 c 0,-4.2 2.8,-7.6 7.4,-7.6 4.6,0 7.4,3.4 7.4,7.6 0,4.1 -2.8,7.6 -7.4,7.6 -4.6,0 -7.4,-3.4 -7.4,-7.6 z m 11.6,0 c 0,-2.6 -1.5,-4.8 -4.2,-4.8 -2.7,0 -4.2,2.2 -4.2,4.8 0,2.6 1.5,4.8 4.2,4.8 2.7,0.1 4.2,-2.2 4.2,-4.8 z"
           inkscape:connector-curvature="0"
           style="fill:#ffffff" /><path
           id="path3726"
           d="m 120.6,46 0,-8.4 -2.4,0 0,-2.7 2.4,0 0,-4 3.2,0 0,4 2.9,0 0,2.7 -2.9,0 0,7.6 c 0,1 0.5,1.7 1.4,1.7 0.6,0 1.1,-0.3 1.4,-0.5 l 0.8,2.4 c -0.6,0.5 -1.5,0.9 -2.9,0.9 -2.6,0.1 -3.9,-1.3 -3.9,-3.7 z"
           inkscape:connector-curvature="0"
           style="fill:#ffffff" /><path
           id="path3728"
           d="m 129.2,31.2 c 0,-1.1 0.9,-2 1.9,-2 1,0 2,0.9 2,2 0,1.1 -0.9,1.9 -2,1.9 -1.1,0 -1.9,-0.8 -1.9,-1.9 z m 0.3,18.2 0,-14.5 3.2,0 0,14.5 -3.2,0 z"
           inkscape:connector-curvature="0"
           style="fill:#ffffff" /><path
           id="path3730"
           d="m 137.5,49.4 0,-11.8 -2.4,0 0,-2.7 2.4,0 0,-0.8 c 0,-3.1 1.8,-5 4.6,-5 1.3,0 2.6,0.3 3.5,1.3 l -1.2,1.9 c -0.4,-0.4 -1,-0.6 -1.6,-0.6 -1.3,0 -2,0.8 -2,2.4 l 0,0.8 2.9,0 0,2.7 -2.9,0 0,11.8 -3.3,0 z"
           inkscape:connector-curvature="0"
           style="fill:#ffffff" /><path
           id="path3732"
           d="m 145.9,52.3 c 0.3,0.2 0.8,0.2 1.2,0.2 1,0 1.7,-0.3 2.1,-1.3 l 0.7,-1.7 -6,-14.7 3.4,0 4.2,10.9 4.2,-10.9 3.4,0 -7,17.1 c -1,2.5 -2.7,3.2 -4.9,3.3 -0.5,0 -1.4,-0.1 -1.8,-0.2 l 0.5,-2.7 z"
           inkscape:connector-curvature="0"
           style="fill:#ffffff" /></g><g
         id="g3734"
         transform="matrix(0.63120629,0,0,0.63120629,-110.90482,-8.7539458)"><g
           id="g3736"><g
             id="g3738"><path
               id="path3740"
               d="m 32.5,13.2 c -11,0 -20,9 -20,20 0,11 9,20 20,20 11,0 20,-9 20,-20 0,-11 -8.9,-20 -20,-20 z m 9.2,28.9 C 41.3,42.7 40.6,42.9 40,42.5 35.3,39.6 29.4,39 22.4,40.6 c -0.7,0.2 -1.3,-0.3 -1.5,-0.9 -0.2,-0.7 0.3,-1.3 0.9,-1.5 7.6,-1.7 14.2,-1 19.4,2.2 0.7,0.3 0.8,1.1 0.5,1.7 z m 2.4,-5.5 c -0.5,0.7 -1.4,1 -2.1,0.5 -5.4,-3.3 -13.6,-4.3 -19.9,-2.3 -0.8,0.2 -1.7,-0.2 -1.9,-1 -0.2,-0.8 0.2,-1.7 1,-1.9 7.3,-2.2 16.3,-1.1 22.5,2.7 0.6,0.3 0.9,1.3 0.4,2 z M 44.3,31 c -6.4,-3.8 -17.1,-4.2 -23.2,-2.3 -1,0.3 -2,-0.3 -2.3,-1.2 -0.3,-1 0.3,-2 1.2,-2.3 7.1,-2.1 18.8,-1.7 26.2,2.7 0.9,0.5 1.2,1.7 0.7,2.6 -0.5,0.7 -1.7,1 -2.6,0.5 z"
               inkscape:connector-curvature="0"
               style="fill:#84bd00" /></g></g></g></g></g></svg>